<svg width="198" height="122" viewBox="0 0 198 122" fill="none" xmlns="http://www.w3.org/2000/svg">
<g filter="url(#filter0_f_6_1619)">
<path d="M53.0983 71.7043C73.6595 71.7043 90.3275 59.9191 90.3275 45.3814C90.3275 30.8437 73.6595 19.0586 53.0983 19.0586C32.5372 19.0586 15.8691 30.8437 15.8691 45.3814C15.8691 59.9191 32.5372 71.7043 53.0983 71.7043Z" fill="#FA9E42"/>
<g filter="url(#filter1_f_6_1619)">
<path d="M50.4081 41.6379C62.7813 37.0147 69.7019 29.148 65.8656 24.0671C62.0294 18.9861 48.8891 18.6151 36.5159 23.2383C24.1427 27.8615 17.2222 35.7283 21.0584 40.8092C24.8946 45.8901 38.0349 46.2611 50.4081 41.6379Z" fill="#F8E36F"/>
</g>
<path d="M60.2161 68.9199C60.4867 68.9247 63.233 75.633 63.233 78.2398C63.233 80.8466 61.8822 82.9601 60.2161 82.9601C58.5501 82.9601 57.1992 80.8468 57.1992 78.2401C57.1992 75.6333 59.9455 68.9154 60.2161 68.9199Z" fill="#42A0F0"/>
<path d="M58.7589 79.0375C59.1996 79.1323 59.7802 78.6955 60.0556 78.0618C60.3309 77.4282 60.1968 76.8377 59.7561 76.7429C59.3153 76.6481 58.7348 77.0849 58.4594 77.7186C58.184 78.3522 58.3181 78.9427 58.7589 79.0375Z" fill="white"/>
<path d="M81.1507 68.9199C81.4213 68.9247 84.1676 75.633 84.1676 78.2398C84.1676 80.8466 82.8167 82.9601 81.1507 82.9601C79.4846 82.9601 78.1338 80.8468 78.1338 78.2401C78.1338 75.6333 80.8801 68.9154 81.1507 68.9199Z" fill="#42A0F0"/>
<path d="M79.6935 79.0375C80.1342 79.1323 80.7148 78.6955 80.9901 78.0618C81.2655 77.4282 81.1314 76.8377 80.6907 76.7429C80.2499 76.6481 79.6693 77.0849 79.394 77.7186C79.1186 78.3522 79.2527 78.9427 79.6935 79.0375Z" fill="white"/>
<path d="M103.613 68.9199C103.883 68.9247 106.629 75.633 106.629 78.2398C106.629 80.8466 105.279 82.9601 103.613 82.9601C101.947 82.9601 100.596 80.8468 100.596 78.2401C100.596 75.6333 103.342 68.9154 103.613 68.9199Z" fill="#42A0F0"/>
<path d="M102.155 79.0375C102.596 79.1323 103.177 78.6955 103.452 78.0618C103.727 77.4282 103.593 76.8377 103.153 76.7429C102.712 76.6481 102.131 77.0849 101.856 77.7186C101.581 78.3522 101.715 78.9427 102.155 79.0375Z" fill="white"/>
<path d="M124.358 68.1221C124.628 68.1269 127.375 74.8352 127.375 77.442C127.375 80.0487 126.024 82.1622 124.358 82.1622C122.692 82.1622 121.341 80.049 121.341 77.4422C121.341 74.8355 124.087 68.1176 124.358 68.1221Z" fill="#42A0F0"/>
<path d="M122.9 78.2396C123.341 78.3344 123.922 77.8976 124.197 77.264C124.473 76.6304 124.338 76.0399 123.898 75.9451C123.457 75.8503 122.876 76.2871 122.601 76.9207C122.326 77.5543 122.46 78.1448 122.9 78.2396Z" fill="white"/>
<path d="M91.721 86.7344C91.9916 86.7392 94.7379 93.4475 94.7379 96.0543C94.7379 98.661 93.387 100.775 91.721 100.775C90.0549 100.775 88.7041 98.6613 88.7041 96.0545C88.7041 93.4478 91.4504 86.7299 91.721 86.7344Z" fill="#42A0F0"/>
<path d="M90.2638 96.8519C90.7045 96.9467 91.2851 96.5099 91.5604 95.8763C91.8358 95.2427 91.7017 94.6522 91.261 94.5574C90.8202 94.4626 90.2397 94.8994 89.9643 95.533C89.6889 96.1666 89.823 96.7571 90.2638 96.8519Z" fill="white"/>
<path d="M114.182 86.7344C114.453 86.7392 117.199 93.4475 117.199 96.0543C117.199 98.661 115.848 100.775 114.182 100.775C112.516 100.775 111.165 98.6613 111.165 96.0545C111.165 93.4478 113.911 86.7299 114.182 86.7344Z" fill="#42A0F0"/>
<path d="M112.725 96.8519C113.165 96.9467 113.746 96.5099 114.021 95.8763C114.297 95.2427 114.163 94.6522 113.722 94.5574C113.281 94.4626 112.701 94.8994 112.425 95.533C112.15 96.1666 112.284 96.7571 112.725 96.8519Z" fill="white"/>
<path d="M137.964 86.7344C138.235 86.7392 140.981 93.4475 140.981 96.0543C140.981 98.661 139.63 100.775 137.964 100.775C136.298 100.775 134.947 98.6613 134.947 96.0545C134.947 93.4478 137.694 86.7299 137.964 86.7344Z" fill="#42A0F0"/>
<path d="M136.507 96.8519C136.948 96.9467 137.528 96.5099 137.804 95.8763C138.079 95.2427 137.945 94.6522 137.504 94.5574C137.063 94.4626 136.483 94.8994 136.207 95.533C135.932 96.1666 136.066 96.7571 136.507 96.8519Z" fill="white"/>
<path d="M69.261 87.5322C69.5316 87.537 72.2779 94.2453 72.2779 96.8521C72.2779 99.4589 70.9271 101.572 69.261 101.572C67.595 101.572 66.2441 99.4591 66.2441 96.8524C66.2441 94.2456 68.9904 87.5277 69.261 87.5322Z" fill="#42A0F0"/>
<path d="M67.8038 97.6498C68.2446 97.7446 68.8251 97.3078 69.1005 96.6741C69.3758 96.0405 69.2418 95.45 68.801 95.3552C68.3602 95.2604 67.7797 95.6972 67.5043 96.3309C67.229 96.9645 67.363 97.555 67.8038 97.6498Z" fill="white"/>
<path d="M48.1204 86.7344C48.391 86.7392 51.1373 93.4475 51.1373 96.0543C51.1373 98.661 49.7865 100.775 48.1204 100.775C46.4543 100.775 45.1035 98.6613 45.1035 96.0545C45.1035 93.4478 47.8498 86.7299 48.1204 86.7344Z" fill="#42A0F0"/>
<path d="M46.6632 96.8519C47.1039 96.9467 47.6845 96.5099 47.9599 95.8763C48.2352 95.2427 48.1011 94.6522 47.6604 94.5574C47.2196 94.4626 46.6391 94.8994 46.3637 95.533C46.0883 96.1666 46.2224 96.7571 46.6632 96.8519Z" fill="white"/>
<path d="M60.2161 100.826C60.4867 100.831 63.233 107.539 63.233 110.146C63.233 112.753 61.8822 114.866 60.2161 114.866C58.5501 114.866 57.1992 112.753 57.1992 110.146C57.1992 107.54 59.9455 100.822 60.2161 100.826Z" fill="#42A0F0"/>
<path d="M58.7589 110.944C59.1996 111.039 59.7802 110.602 60.0556 109.968C60.3309 109.334 60.1968 108.744 59.7561 108.649C59.3153 108.554 58.7348 108.991 58.4594 109.625C58.184 110.258 58.3181 110.849 58.7589 110.944Z" fill="white"/>
<path d="M81.1507 100.826C81.4213 100.831 84.1676 107.539 84.1676 110.146C84.1676 112.753 82.8167 114.866 81.1507 114.866C79.4846 114.866 78.1338 112.753 78.1338 110.146C78.1338 107.54 80.8801 100.822 81.1507 100.826Z" fill="#42A0F0"/>
<path d="M79.6935 110.944C80.1342 111.039 80.7148 110.602 80.9901 109.968C81.2655 109.334 81.1314 108.744 80.6907 108.649C80.2499 108.554 79.6693 108.991 79.394 109.625C79.1186 110.258 79.2527 110.849 79.6935 110.944Z" fill="white"/>
<path d="M103.613 100.826C103.883 100.831 106.629 107.539 106.629 110.146C106.629 112.753 105.279 114.866 103.613 114.866C101.947 114.866 100.596 112.753 100.596 110.146C100.596 107.54 103.342 100.822 103.613 100.826Z" fill="#42A0F0"/>
<path d="M102.155 110.944C102.596 111.039 103.177 110.602 103.452 109.968C103.727 109.334 103.593 108.744 103.153 108.649C102.712 108.554 102.131 108.991 101.856 109.625C101.581 110.258 101.715 110.849 102.155 110.944Z" fill="white"/>
<path d="M124.358 100.826C124.628 100.831 127.375 107.539 127.375 110.146C127.375 112.753 126.024 114.866 124.358 114.866C122.692 114.866 121.341 112.753 121.341 110.146C121.341 107.54 124.087 100.822 124.358 100.826Z" fill="#42A0F0"/>
<path d="M122.9 110.944C123.341 111.039 123.922 110.602 124.197 109.968C124.473 109.334 124.338 108.744 123.898 108.649C123.457 108.554 122.876 108.991 122.601 109.625C122.326 110.258 122.46 110.849 122.9 110.944Z" fill="white"/>
<g filter="url(#filter2_d_6_1619)">
<path d="M123.095 89.5661H50.7415C43.7226 89.5623 36.9778 87.6486 31.9192 84.2257C26.8606 80.8027 23.8804 76.1359 23.6024 71.2021C23.3244 66.2684 25.7702 61.4502 30.4278 57.7563C35.0854 54.0624 41.5937 51.7792 48.5901 51.3847C49.5879 46.4285 52.7693 41.8172 57.6868 38.1993C62.6043 34.5815 69.0104 32.1392 76.0039 31.2162C82.9973 30.2931 90.2262 30.9357 96.6735 33.0535C103.121 35.1714 108.462 38.6579 111.946 43.0225C118.335 41.4666 125.238 41.2848 131.775 42.5002C138.312 43.7157 144.186 46.2734 148.648 49.847C153.11 53.4207 155.958 57.8483 156.828 62.5652C157.698 67.2821 156.552 72.0745 153.534 76.331C151.764 80.177 148.306 83.5295 143.659 85.9073C139.011 88.2851 133.412 89.566 127.666 89.5661H123.095Z" fill="url(#paint0_linear_6_1619)"/>
<path d="M127.665 89.2998C130.583 89.2998 133.452 88.972 136.192 88.3256C138.842 87.7005 141.33 86.7884 143.586 85.6144C145.817 84.454 147.772 83.064 149.397 81.4829C151.043 79.8821 152.314 78.1211 153.174 76.2488L153.183 76.2296L153.196 76.2116C154.339 74.6037 155.22 72.9027 155.813 71.1559C156.424 69.3584 156.734 67.5011 156.734 65.6358C156.734 64.03 156.504 62.4254 156.05 60.8664C155.608 59.3472 154.949 57.8528 154.09 56.4248C153.247 55.0227 152.204 53.6703 150.989 52.4053C149.785 51.1522 148.403 49.9738 146.881 48.9029C145.359 47.832 143.684 46.8597 141.902 46.0131C140.104 45.1585 138.182 44.4244 136.189 43.8314C134.159 43.2274 132.034 42.7635 129.875 42.4526C127.659 42.1336 125.378 41.9718 123.095 41.9718C119.316 41.9718 115.606 42.4094 112.069 43.2723L111.77 43.3452L111.615 43.1515C108.737 39.5509 104.55 36.527 99.507 34.4069C96.9566 33.3347 94.2167 32.5061 91.3633 31.9442C88.4195 31.3645 85.3618 31.0706 82.2751 31.0706C78.1233 31.0706 74.0705 31.5962 70.2292 32.6329C66.5184 33.6344 63.1143 35.0811 60.1114 36.9329C57.1258 38.7739 54.6481 40.9462 52.7472 43.3893C50.7997 45.8925 49.5267 48.5945 48.9638 51.4202L48.9217 51.6317L48.619 51.6484C45.2331 51.8348 41.9755 52.462 38.9367 53.5123C35.9839 54.5329 33.3472 55.9134 31.0997 57.6153C26.4818 61.1123 23.9385 65.6687 23.9385 70.445C23.9385 72.9904 24.6471 75.4597 26.0446 77.784C26.7163 78.9012 27.5477 79.9787 28.5157 80.9866C29.4746 81.9851 30.5758 82.924 31.7887 83.7773C33.0017 84.6306 34.3364 85.4053 35.7557 86.0798C37.1885 86.7608 38.7202 87.3456 40.3083 87.8182C43.6123 88.8013 47.1223 89.2998 50.7408 89.2998H123.095H127.665ZM127.665 89.5656H123.095H50.7408C35.7296 89.5656 23.5605 81.005 23.5605 70.445C23.5605 60.3941 34.5837 52.1546 48.5895 51.3833C50.9062 39.7537 65.1049 30.8047 82.2751 30.8047C95.0132 30.8047 106.116 35.7298 111.945 43.0211C115.438 42.1689 119.189 41.7059 123.095 41.7059C141.882 41.7059 157.111 52.4198 157.111 65.6358C157.111 69.4795 155.823 73.1122 153.534 76.3306C150.005 84.0109 139.757 89.5656 127.665 89.5656Z" fill="white" fill-opacity="0.5"/>
</g>
</g>
<defs>
<filter id="filter0_f_6_1619" x="11.8691" y="15.0586" width="149.242" height="103.808" filterUnits="userSpaceOnUse" color-interpolation-filters="sRGB">
<feFlood flood-opacity="0" result="BackgroundImageFix"/>
<feBlend mode="normal" in="SourceGraphic" in2="BackgroundImageFix" result="shape"/>
<feGaussianBlur stdDeviation="2" result="effect1_foregroundBlur_6_1619"/>
</filter>
<filter id="filter1_f_6_1619" x="0" y="0" width="86.9238" height="64.877" filterUnits="userSpaceOnUse" color-interpolation-filters="sRGB">
<feFlood flood-opacity="0" result="BackgroundImageFix"/>
<feBlend mode="normal" in="SourceGraphic" in2="BackgroundImageFix" result="shape"/>
<feGaussianBlur stdDeviation="10" result="effect1_foregroundBlur_6_1619"/>
</filter>
<filter id="filter2_d_6_1619" x="3.56055" y="2.80469" width="193.551" height="118.762" filterUnits="userSpaceOnUse" color-interpolation-filters="sRGB">
<feFlood flood-opacity="0" result="BackgroundImageFix"/>
<feColorMatrix in="SourceAlpha" type="matrix" values="0 0 0 0 0 0 0 0 0 0 0 0 0 0 0 0 0 0 127 0" result="hardAlpha"/>
<feOffset dx="10" dy="2"/>
<feGaussianBlur stdDeviation="15"/>
<feColorMatrix type="matrix" values="0 0 0 0 0.501961 0 0 0 0 0.501961 0 0 0 0 0.501961 0 0 0 0.302 0"/>
<feBlend mode="normal" in2="BackgroundImageFix" result="effect1_dropShadow_6_1619"/>
<feBlend mode="normal" in="SourceGraphic" in2="effect1_dropShadow_6_1619" result="shape"/>
</filter>
<linearGradient id="paint0_linear_6_1619" x1="90.3461" y1="30.8057" x2="111.074" y2="102.046" gradientUnits="userSpaceOnUse">
<stop stop-color="white" stop-opacity="0.604"/>
<stop offset="1" stop-color="white" stop-opacity="0.2"/>
</linearGradient>
</defs>
</svg>
